<svg width="1440" height="757" viewBox="0 0 1440 757" fill="none" xmlns="http://www.w3.org/2000/svg">
<path d="M-15 711.951C83 757.451 134 602.951 259 561.951C384 520.951 567.829 628.857 719 613.451C954.5 589.449 983.5 463.449 1180 139.45C1227.34 61.392 1349.5 5.44961 1456 31.4498" stroke="#0076FF" stroke-width="26"/>
<circle cx="1015" cy="423" r="60" fill="white"/>
<path d="M982.8 418.429C987.874 418.429 992 414.329 992 409.286C992 404.243 987.874 400.143 982.8 400.143C977.726 400.143 973.6 404.243 973.6 409.286C973.6 414.329 977.726 418.429 982.8 418.429ZM1047.2 418.429C1052.27 418.429 1056.4 414.329 1056.4 409.286C1056.4 404.243 1052.27 400.143 1047.2 400.143C1042.13 400.143 1038 404.243 1038 409.286C1038 414.329 1042.13 418.429 1047.2 418.429ZM1051.8 423H1042.6C1040.07 423 1037.78 424.014 1036.12 425.657C1041.91 428.814 1046.02 434.514 1046.91 441.286H1056.4C1058.94 441.286 1061 439.243 1061 436.714V432.143C1061 427.1 1056.87 423 1051.8 423ZM1015 423C1023.9 423 1031.1 415.843 1031.1 407C1031.1 398.157 1023.9 391 1015 391C1006.1 391 998.9 398.157 998.9 407C998.9 415.843 1006.1 423 1015 423ZM1026.04 427.571H1024.85C1021.86 429 1018.54 429.857 1015 429.857C1011.46 429.857 1008.16 429 1005.15 427.571H1003.96C994.818 427.571 987.4 434.943 987.4 444.029V448.143C987.4 451.929 990.491 455 994.3 455H1035.7C1039.51 455 1042.6 451.929 1042.6 448.143V444.029C1042.6 434.943 1035.18 427.571 1026.04 427.571ZM993.883 425.657C992.216 424.014 989.93 423 987.4 423H978.2C973.126 423 969 427.1 969 432.143V436.714C969 439.243 971.056 441.286 973.6 441.286H983.073C983.979 434.514 988.09 428.814 993.883 425.657Z" fill="#285599"/>
<circle cx="1269.5" cy="61.5" r="61.5" fill="white"/>
<path d="M1271.12 43.9306L1268.04 25.1901C1267.92 24.4192 1267.59 23.695 1267.1 23.0879C1266.61 22.4808 1265.98 22.0115 1265.25 21.7258L1250.68 15.98C1248.99 15.3105 1247.24 16.8368 1247.66 18.6171L1253.99 45.2955C1259.33 43.176 1265.27 42.6209 1271.12 43.9306ZM1313.59 40.7902L1299.02 35.0444C1297.55 34.4633 1295.88 34.7014 1294.62 35.6717L1279.58 47.2649C1284.75 50.3017 1288.71 54.7649 1291.17 59.9557L1314 44.7828C1315.53 43.7696 1315.29 41.4597 1313.59 40.7902ZM1273.83 49.4483C1261.09 44.4236 1246.67 50.7237 1241.62 63.5196C1236.58 76.3156 1242.82 90.7627 1255.56 95.7874C1268.3 100.812 1282.72 94.512 1287.76 81.7161C1292.81 68.9202 1286.57 54.473 1273.83 49.4483ZM1277.79 74.9336L1270.9 77.8384L1269.37 85.1767C1269.09 86.4916 1267.43 86.9231 1266.56 85.9075L1261.69 80.2375L1254.26 81.0581C1252.93 81.2097 1252.01 79.7539 1252.71 78.6058L1256.59 72.195L1253.54 65.3686C1252.99 64.1419 1254.09 62.811 1255.39 63.1179L1262.66 64.8225L1268.2 59.7779C1268.7 59.3235 1269.34 59.2567 1269.88 59.4681C1270.42 59.6806 1270.84 60.1748 1270.9 60.8433L1271.5 68.3103L1277.98 72.0264C1279.14 72.6914 1279.03 74.412 1277.79 74.9336Z" fill="#285599"/>
<circle cx="553.422" cy="598.66" r="46.5" fill="white"/>
<path d="M529.305 597.273L520.545 601.351C519.093 602.026 518.464 603.751 519.14 605.202L531.372 631.483C532.048 632.935 533.772 633.564 535.224 632.888L543.984 628.811C545.435 628.135 546.064 626.411 545.389 624.959L533.156 598.678C532.481 597.227 530.757 596.598 529.305 597.273ZM537.565 626.469C536.113 627.145 534.389 626.516 533.714 625.064C533.038 623.613 533.667 621.889 535.119 621.213C536.57 620.537 538.294 621.166 538.97 622.618C539.645 624.069 539.016 625.794 537.565 626.469ZM552.701 567.393C554.863 572.038 553.232 575.967 553.876 579.442L565.015 574.258C568.672 572.556 572.933 574.269 574.497 577.584C575.421 579.544 575.57 582.048 574.876 583.963L574.87 583.98C577.136 586.034 578.628 589.697 577.901 593.157C580.171 595.55 580.834 599.479 579.917 602.178C581.285 603.886 581.823 605.631 581.519 607.379C580.778 611.63 575.26 614.253 570.576 616.434L570.264 616.579C564.976 619.038 559.752 619.127 555.555 619.198C553.446 619.234 550.713 619.335 548.965 620.11C548.243 620.43 547.396 620.113 547.063 619.397L536.168 595.988C536.005 595.638 535.988 595.236 536.123 594.874C538.466 588.568 538.219 583.162 540.117 577.946C540.982 575.567 540.43 572.839 539.895 570.201C539.439 567.949 538.455 563.172 540.665 562.143C543.293 560.92 548.957 559.35 552.701 567.393Z" fill="#285599"/>
<circle cx="109" cy="674.45" r="47.5" fill="white"/>
<path d="M145.814 670.136L139.445 670.091L139.491 663.736C139.497 662.862 138.785 662.142 137.91 662.136L134.725 662.113C133.849 662.107 133.128 662.817 133.122 663.69L133.076 670.045L126.707 670C125.831 669.993 125.11 670.703 125.103 671.577L125.081 674.754C125.074 675.628 125.786 676.348 126.661 676.354L133.031 676.4L132.985 682.755C132.979 683.628 133.69 684.348 134.566 684.355L137.75 684.378C138.626 684.384 139.348 683.674 139.354 682.8L139.4 676.446L145.769 676.491C146.644 676.497 147.366 675.788 147.372 674.914L147.395 671.736C147.401 670.863 146.69 670.143 145.814 670.136ZM105.974 674.617C113.009 674.668 118.752 669.019 118.803 661.999C118.853 654.979 113.191 649.249 106.156 649.198C99.1198 649.148 93.3768 654.797 93.3265 661.817C93.2763 668.837 98.9378 674.567 105.974 674.617ZM114.867 677.859L113.206 677.847C110.989 678.844 108.527 679.402 105.939 679.383C103.352 679.365 100.908 678.771 98.6961 677.743L97.0342 677.731C89.6501 677.678 83.6164 683.613 83.5637 690.98L83.5341 695.111C83.5153 697.742 85.6396 699.892 88.2768 699.911L123.306 700.162C125.944 700.181 128.098 698.061 128.117 695.43L128.147 691.299C128.2 683.932 122.252 677.911 114.867 677.859Z" fill="#285599"/>
<path d="M219.666 701.875H214.689C214.598 701.231 214.412 700.659 214.132 700.159C213.852 699.652 213.492 699.22 213.053 698.864C212.613 698.508 212.106 698.235 211.53 698.045C210.962 697.856 210.344 697.761 209.678 697.761C208.473 697.761 207.424 698.061 206.53 698.659C205.636 699.25 204.943 700.114 204.45 701.25C203.958 702.379 203.712 703.75 203.712 705.364C203.712 707.023 203.958 708.417 204.45 709.545C204.95 710.674 205.647 711.527 206.541 712.102C207.435 712.678 208.469 712.966 209.643 712.966C210.303 712.966 210.912 712.879 211.473 712.705C212.041 712.53 212.545 712.277 212.984 711.943C213.424 711.602 213.787 711.189 214.075 710.705C214.371 710.22 214.575 709.667 214.689 709.045L219.666 709.068C219.537 710.136 219.215 711.167 218.7 712.159C218.193 713.144 217.507 714.027 216.643 714.807C215.787 715.58 214.765 716.193 213.575 716.648C212.393 717.095 211.056 717.318 209.564 717.318C207.488 717.318 205.632 716.848 203.996 715.909C202.367 714.97 201.079 713.61 200.132 711.83C199.193 710.049 198.723 707.894 198.723 705.364C198.723 702.826 199.2 700.667 200.155 698.886C201.109 697.106 202.405 695.75 204.041 694.818C205.678 693.879 207.518 693.409 209.564 693.409C210.912 693.409 212.162 693.598 213.314 693.977C214.473 694.356 215.5 694.909 216.393 695.636C217.287 696.356 218.015 697.239 218.575 698.284C219.143 699.33 219.507 700.527 219.666 701.875ZM223.104 717V699.545H227.797V702.591H227.979C228.297 701.508 228.831 700.689 229.581 700.136C230.331 699.576 231.195 699.295 232.172 699.295C232.414 699.295 232.676 699.311 232.956 699.341C233.236 699.371 233.482 699.413 233.695 699.466V703.761C233.467 703.693 233.153 703.633 232.751 703.58C232.35 703.527 231.982 703.5 231.649 703.5C230.937 703.5 230.301 703.655 229.74 703.966C229.187 704.269 228.748 704.693 228.422 705.239C228.104 705.784 227.945 706.413 227.945 707.125V717H223.104ZM243.339 717.341C241.544 717.341 239.999 716.977 238.703 716.25C237.415 715.515 236.423 714.477 235.726 713.136C235.029 711.788 234.68 710.193 234.68 708.352C234.68 706.557 235.029 704.981 235.726 703.625C236.423 702.269 237.404 701.212 238.669 700.455C239.942 699.697 241.434 699.318 243.146 699.318C244.298 699.318 245.37 699.504 246.362 699.875C247.362 700.239 248.233 700.788 248.976 701.523C249.726 702.258 250.309 703.182 250.726 704.295C251.143 705.402 251.351 706.697 251.351 708.182V709.511H236.612V706.511H246.794C246.794 705.814 246.643 705.197 246.339 704.659C246.036 704.121 245.616 703.701 245.078 703.398C244.548 703.087 243.93 702.932 243.226 702.932C242.491 702.932 241.839 703.102 241.271 703.443C240.711 703.777 240.271 704.227 239.953 704.795C239.635 705.356 239.472 705.981 239.464 706.67V709.523C239.464 710.386 239.624 711.133 239.942 711.761C240.268 712.39 240.726 712.875 241.317 713.216C241.908 713.557 242.608 713.727 243.419 713.727C243.957 713.727 244.449 713.652 244.896 713.5C245.343 713.348 245.726 713.121 246.044 712.818C246.362 712.515 246.605 712.144 246.771 711.705L251.249 712C251.021 713.076 250.555 714.015 249.851 714.818C249.154 715.614 248.252 716.235 247.146 716.682C246.048 717.121 244.779 717.341 243.339 717.341ZM259.487 717.33C258.374 717.33 257.381 717.136 256.51 716.75C255.639 716.356 254.949 715.777 254.442 715.011C253.942 714.239 253.692 713.277 253.692 712.125C253.692 711.155 253.87 710.341 254.226 709.682C254.582 709.023 255.067 708.492 255.68 708.091C256.294 707.689 256.991 707.386 257.771 707.182C258.559 706.977 259.385 706.833 260.249 706.75C261.264 706.644 262.082 706.545 262.703 706.455C263.324 706.356 263.775 706.212 264.055 706.023C264.336 705.833 264.476 705.553 264.476 705.182V705.114C264.476 704.394 264.249 703.837 263.794 703.443C263.347 703.049 262.711 702.852 261.885 702.852C261.014 702.852 260.321 703.045 259.805 703.432C259.29 703.811 258.949 704.288 258.783 704.864L254.305 704.5C254.533 703.439 254.98 702.523 255.646 701.75C256.313 700.97 257.173 700.371 258.226 699.955C259.286 699.53 260.514 699.318 261.908 699.318C262.877 699.318 263.805 699.432 264.692 699.659C265.586 699.886 266.377 700.239 267.067 700.716C267.764 701.193 268.313 701.807 268.714 702.557C269.116 703.299 269.317 704.189 269.317 705.227V717H264.726V714.58H264.589C264.309 715.125 263.934 715.606 263.464 716.023C262.995 716.432 262.43 716.754 261.771 716.989C261.112 717.216 260.351 717.33 259.487 717.33ZM260.874 713.989C261.586 713.989 262.214 713.848 262.76 713.568C263.305 713.28 263.733 712.894 264.044 712.409C264.355 711.924 264.51 711.375 264.51 710.761V708.909C264.358 709.008 264.15 709.098 263.885 709.182C263.627 709.258 263.336 709.33 263.01 709.398C262.684 709.458 262.358 709.515 262.033 709.568C261.707 709.614 261.411 709.655 261.146 709.693C260.578 709.777 260.082 709.909 259.658 710.091C259.233 710.273 258.904 710.519 258.669 710.83C258.434 711.133 258.317 711.511 258.317 711.966C258.317 712.625 258.555 713.129 259.033 713.477C259.518 713.818 260.131 713.989 260.874 713.989ZM282.357 699.545V703.182H271.845V699.545H282.357ZM274.232 695.364H279.072V711.636C279.072 712.083 279.141 712.432 279.277 712.682C279.413 712.924 279.603 713.095 279.845 713.193C280.095 713.292 280.383 713.341 280.709 713.341C280.936 713.341 281.163 713.322 281.391 713.284C281.618 713.239 281.792 713.205 281.913 713.182L282.675 716.784C282.432 716.86 282.091 716.947 281.652 717.045C281.213 717.152 280.679 717.216 280.05 717.239C278.883 717.284 277.86 717.129 276.982 716.773C276.11 716.417 275.432 715.864 274.947 715.114C274.463 714.364 274.224 713.417 274.232 712.273V695.364ZM293.277 717.341C291.482 717.341 289.936 716.977 288.641 716.25C287.353 715.515 286.36 714.477 285.663 713.136C284.966 711.788 284.618 710.193 284.618 708.352C284.618 706.557 284.966 704.981 285.663 703.625C286.36 702.269 287.341 701.212 288.607 700.455C289.879 699.697 291.372 699.318 293.084 699.318C294.235 699.318 295.307 699.504 296.3 699.875C297.3 700.239 298.171 700.788 298.913 701.523C299.663 702.258 300.247 703.182 300.663 704.295C301.08 705.402 301.288 706.697 301.288 708.182V709.511H286.55V706.511H296.732C296.732 705.814 296.58 705.197 296.277 704.659C295.974 704.121 295.554 703.701 295.016 703.398C294.485 703.087 293.868 702.932 293.163 702.932C292.429 702.932 291.777 703.102 291.209 703.443C290.648 703.777 290.209 704.227 289.891 704.795C289.572 705.356 289.41 705.981 289.402 706.67V709.523C289.402 710.386 289.561 711.133 289.879 711.761C290.205 712.39 290.663 712.875 291.254 713.216C291.845 713.557 292.546 713.727 293.357 713.727C293.894 713.727 294.387 713.652 294.834 713.5C295.281 713.348 295.663 713.121 295.982 712.818C296.3 712.515 296.542 712.144 296.709 711.705L301.186 712C300.959 713.076 300.493 714.015 299.788 714.818C299.091 715.614 298.19 716.235 297.084 716.682C295.985 717.121 294.716 717.341 293.277 717.341ZM311.945 717V693.727H327.354V697.784H316.865V703.33H326.331V707.386H316.865V717H311.945ZM330.291 717V699.545H334.984V702.591H335.166C335.484 701.508 336.018 700.689 336.768 700.136C337.518 699.576 338.382 699.295 339.359 699.295C339.602 699.295 339.863 699.311 340.143 699.341C340.424 699.371 340.67 699.413 340.882 699.466V703.761C340.655 703.693 340.34 703.633 339.939 703.58C339.537 703.527 339.17 703.5 338.837 703.5C338.125 703.5 337.488 703.655 336.928 703.966C336.375 704.269 335.935 704.693 335.609 705.239C335.291 705.784 335.132 706.413 335.132 707.125V717H330.291ZM350.527 717.341C348.732 717.341 347.186 716.977 345.891 716.25C344.603 715.515 343.61 714.477 342.913 713.136C342.216 711.788 341.868 710.193 341.868 708.352C341.868 706.557 342.216 704.981 342.913 703.625C343.61 702.269 344.591 701.212 345.857 700.455C347.129 699.697 348.622 699.318 350.334 699.318C351.485 699.318 352.557 699.504 353.55 699.875C354.55 700.239 355.421 700.788 356.163 701.523C356.913 702.258 357.497 703.182 357.913 704.295C358.33 705.402 358.538 706.697 358.538 708.182V709.511H343.8V706.511H353.982C353.982 705.814 353.83 705.197 353.527 704.659C353.224 704.121 352.804 703.701 352.266 703.398C351.735 703.087 351.118 702.932 350.413 702.932C349.679 702.932 349.027 703.102 348.459 703.443C347.898 703.777 347.459 704.227 347.141 704.795C346.822 705.356 346.66 705.981 346.652 706.67V709.523C346.652 710.386 346.811 711.133 347.129 711.761C347.455 712.39 347.913 712.875 348.504 713.216C349.095 713.557 349.796 713.727 350.607 713.727C351.144 713.727 351.637 713.652 352.084 713.5C352.531 713.348 352.913 713.121 353.232 712.818C353.55 712.515 353.792 712.144 353.959 711.705L358.436 712C358.209 713.076 357.743 714.015 357.038 714.818C356.341 715.614 355.44 716.235 354.334 716.682C353.235 717.121 351.966 717.341 350.527 717.341ZM369.652 717.341C367.857 717.341 366.311 716.977 365.016 716.25C363.728 715.515 362.735 714.477 362.038 713.136C361.341 711.788 360.993 710.193 360.993 708.352C360.993 706.557 361.341 704.981 362.038 703.625C362.735 702.269 363.716 701.212 364.982 700.455C366.254 699.697 367.747 699.318 369.459 699.318C370.61 699.318 371.682 699.504 372.675 699.875C373.675 700.239 374.546 700.788 375.288 701.523C376.038 702.258 376.622 703.182 377.038 704.295C377.455 705.402 377.663 706.697 377.663 708.182V709.511H362.925V706.511H373.107C373.107 705.814 372.955 705.197 372.652 704.659C372.349 704.121 371.929 703.701 371.391 703.398C370.86 703.087 370.243 702.932 369.538 702.932C368.804 702.932 368.152 703.102 367.584 703.443C367.023 703.777 366.584 704.227 366.266 704.795C365.947 705.356 365.785 705.981 365.777 706.67V709.523C365.777 710.386 365.936 711.133 366.254 711.761C366.58 712.39 367.038 712.875 367.629 713.216C368.22 713.557 368.921 713.727 369.732 713.727C370.269 713.727 370.762 713.652 371.209 713.5C371.656 713.348 372.038 713.121 372.357 712.818C372.675 712.515 372.917 712.144 373.084 711.705L377.561 712C377.334 713.076 376.868 714.015 376.163 714.818C375.466 715.614 374.565 716.235 373.459 716.682C372.36 717.121 371.091 717.341 369.652 717.341ZM227.753 756H222.48L230.514 732.727H236.855L244.878 756H239.605L233.776 738.045H233.594L227.753 756ZM227.423 746.852H239.878V750.693H227.423V746.852ZM254.662 756.341C252.874 756.341 251.336 755.962 250.048 755.205C248.768 754.439 247.783 753.379 247.094 752.023C246.412 750.667 246.071 749.106 246.071 747.341C246.071 745.553 246.416 743.985 247.105 742.636C247.802 741.28 248.791 740.223 250.071 739.466C251.351 738.701 252.874 738.318 254.639 738.318C256.162 738.318 257.495 738.595 258.639 739.148C259.783 739.701 260.688 740.477 261.355 741.477C262.022 742.477 262.389 743.652 262.457 745H257.889C257.76 744.129 257.42 743.428 256.866 742.898C256.321 742.36 255.605 742.091 254.719 742.091C253.969 742.091 253.313 742.295 252.753 742.705C252.2 743.106 251.768 743.693 251.457 744.466C251.147 745.239 250.991 746.174 250.991 747.273C250.991 748.386 251.143 749.333 251.446 750.114C251.757 750.894 252.192 751.489 252.753 751.898C253.313 752.307 253.969 752.511 254.719 752.511C255.272 752.511 255.768 752.398 256.207 752.17C256.654 751.943 257.022 751.614 257.31 751.182C257.605 750.742 257.798 750.216 257.889 749.602H262.457C262.382 750.936 262.018 752.11 261.366 753.125C260.723 754.133 259.832 754.92 258.696 755.489C257.56 756.057 256.215 756.341 254.662 756.341ZM273.443 756.341C271.655 756.341 270.117 755.962 268.83 755.205C267.549 754.439 266.564 753.379 265.875 752.023C265.193 750.667 264.852 749.106 264.852 747.341C264.852 745.553 265.197 743.985 265.886 742.636C266.583 741.28 267.572 740.223 268.852 739.466C270.133 738.701 271.655 738.318 273.42 738.318C274.943 738.318 276.277 738.595 277.42 739.148C278.564 739.701 279.47 740.477 280.136 741.477C280.803 742.477 281.17 743.652 281.239 745H276.67C276.542 744.129 276.201 743.428 275.648 742.898C275.102 742.36 274.386 742.091 273.5 742.091C272.75 742.091 272.095 742.295 271.534 742.705C270.981 743.106 270.549 743.693 270.239 744.466C269.928 745.239 269.773 746.174 269.773 747.273C269.773 748.386 269.924 749.333 270.227 750.114C270.538 750.894 270.973 751.489 271.534 751.898C272.095 752.307 272.75 752.511 273.5 752.511C274.053 752.511 274.549 752.398 274.989 752.17C275.436 751.943 275.803 751.614 276.091 751.182C276.386 750.742 276.58 750.216 276.67 749.602H281.239C281.163 750.936 280.799 752.11 280.148 753.125C279.504 754.133 278.614 754.92 277.477 755.489C276.341 756.057 274.996 756.341 273.443 756.341ZM292.224 756.341C290.459 756.341 288.933 755.966 287.645 755.216C286.365 754.458 285.376 753.405 284.679 752.057C283.982 750.701 283.634 749.129 283.634 747.341C283.634 745.538 283.982 743.962 284.679 742.614C285.376 741.258 286.365 740.205 287.645 739.455C288.933 738.697 290.459 738.318 292.224 738.318C293.99 738.318 295.512 738.697 296.793 739.455C298.08 740.205 299.073 741.258 299.77 742.614C300.467 743.962 300.815 745.538 300.815 747.341C300.815 749.129 300.467 750.701 299.77 752.057C299.073 753.405 298.08 754.458 296.793 755.216C295.512 755.966 293.99 756.341 292.224 756.341ZM292.247 752.591C293.05 752.591 293.721 752.364 294.259 751.909C294.796 751.447 295.202 750.818 295.474 750.023C295.755 749.227 295.895 748.322 295.895 747.307C295.895 746.292 295.755 745.386 295.474 744.591C295.202 743.795 294.796 743.167 294.259 742.705C293.721 742.242 293.05 742.011 292.247 742.011C291.437 742.011 290.755 742.242 290.202 742.705C289.656 743.167 289.243 743.795 288.963 744.591C288.69 745.386 288.554 746.292 288.554 747.307C288.554 748.322 288.69 749.227 288.963 750.023C289.243 750.818 289.656 751.447 290.202 751.909C290.755 752.364 291.437 752.591 292.247 752.591ZM315.156 748.568V738.545H319.997V756H315.349V752.83H315.168C314.774 753.852 314.118 754.674 313.202 755.295C312.293 755.917 311.183 756.227 309.872 756.227C308.705 756.227 307.679 755.962 306.793 755.432C305.906 754.902 305.213 754.148 304.713 753.17C304.221 752.193 303.971 751.023 303.963 749.659V738.545H308.804V748.795C308.812 749.826 309.088 750.64 309.634 751.239C310.179 751.837 310.91 752.136 311.827 752.136C312.41 752.136 312.955 752.004 313.463 751.739C313.971 751.466 314.38 751.064 314.69 750.534C315.009 750.004 315.164 749.348 315.156 748.568ZM328.71 745.909V756H323.869V738.545H328.483V741.625H328.688C329.074 740.61 329.722 739.807 330.631 739.216C331.54 738.617 332.642 738.318 333.938 738.318C335.15 738.318 336.206 738.583 337.108 739.114C338.009 739.644 338.71 740.402 339.21 741.386C339.71 742.364 339.96 743.53 339.96 744.886V756H335.119V745.75C335.127 744.682 334.854 743.848 334.301 743.25C333.748 742.644 332.987 742.341 332.017 742.341C331.366 742.341 330.79 742.481 330.29 742.761C329.797 743.042 329.411 743.451 329.131 743.989C328.858 744.519 328.718 745.159 328.71 745.909ZM353.06 738.545V742.182H342.548V738.545H353.06ZM344.935 734.364H349.776V750.636C349.776 751.083 349.844 751.432 349.98 751.682C350.116 751.924 350.306 752.095 350.548 752.193C350.798 752.292 351.086 752.341 351.412 752.341C351.639 752.341 351.866 752.322 352.094 752.284C352.321 752.239 352.495 752.205 352.616 752.182L353.378 755.784C353.135 755.86 352.795 755.947 352.355 756.045C351.916 756.152 351.382 756.216 350.753 756.239C349.586 756.284 348.563 756.129 347.685 755.773C346.813 755.417 346.135 754.864 345.651 754.114C345.166 753.364 344.927 752.417 344.935 751.273V734.364Z" fill="black"/>
<path d="M464.861 488.25C464.702 487.697 464.478 487.208 464.19 486.784C463.902 486.352 463.55 485.989 463.134 485.693C462.724 485.39 462.255 485.159 461.724 485C461.202 484.841 460.622 484.761 459.986 484.761C458.796 484.761 457.751 485.057 456.849 485.648C455.955 486.239 455.259 487.098 454.759 488.227C454.259 489.348 454.009 490.72 454.009 492.341C454.009 493.962 454.255 495.341 454.747 496.477C455.24 497.614 455.937 498.481 456.838 499.08C457.74 499.67 458.804 499.966 460.031 499.966C461.145 499.966 462.096 499.769 462.884 499.375C463.679 498.973 464.285 498.409 464.702 497.682C465.126 496.955 465.338 496.095 465.338 495.102L466.338 495.25H460.338V491.545H470.077V494.477C470.077 496.523 469.645 498.28 468.781 499.75C467.918 501.212 466.728 502.341 465.213 503.136C463.698 503.924 461.963 504.318 460.009 504.318C457.827 504.318 455.91 503.837 454.259 502.875C452.607 501.905 451.319 500.53 450.395 498.75C449.478 496.962 449.02 494.841 449.02 492.386C449.02 490.5 449.293 488.818 449.838 487.341C450.391 485.856 451.164 484.598 452.156 483.568C453.149 482.538 454.304 481.754 455.622 481.216C456.94 480.678 458.368 480.409 459.906 480.409C461.224 480.409 462.452 480.602 463.588 480.989C464.724 481.367 465.732 481.905 466.611 482.602C467.497 483.299 468.221 484.129 468.781 485.091C469.342 486.045 469.702 487.098 469.861 488.25H464.861ZM481.636 504.341C479.841 504.341 478.295 503.977 477 503.25C475.712 502.515 474.72 501.477 474.023 500.136C473.326 498.788 472.977 497.193 472.977 495.352C472.977 493.557 473.326 491.981 474.023 490.625C474.72 489.269 475.701 488.212 476.966 487.455C478.239 486.697 479.731 486.318 481.443 486.318C482.595 486.318 483.667 486.504 484.659 486.875C485.659 487.239 486.53 487.788 487.273 488.523C488.023 489.258 488.606 490.182 489.023 491.295C489.439 492.402 489.648 493.697 489.648 495.182V496.511H474.909V493.511H485.091C485.091 492.814 484.939 492.197 484.636 491.659C484.333 491.121 483.913 490.701 483.375 490.398C482.845 490.087 482.227 489.932 481.523 489.932C480.788 489.932 480.136 490.102 479.568 490.443C479.008 490.777 478.568 491.227 478.25 491.795C477.932 492.356 477.769 492.981 477.761 493.67V496.523C477.761 497.386 477.92 498.133 478.239 498.761C478.564 499.39 479.023 499.875 479.614 500.216C480.205 500.557 480.905 500.727 481.716 500.727C482.254 500.727 482.746 500.652 483.193 500.5C483.64 500.348 484.023 500.121 484.341 499.818C484.659 499.515 484.902 499.144 485.068 498.705L489.545 499C489.318 500.076 488.852 501.015 488.148 501.818C487.451 502.614 486.549 503.235 485.443 503.682C484.345 504.121 483.076 504.341 481.636 504.341ZM502.091 486.545V490.182H491.58V486.545H502.091ZM493.966 482.364H498.807V498.636C498.807 499.083 498.875 499.432 499.011 499.682C499.148 499.924 499.337 500.095 499.58 500.193C499.83 500.292 500.117 500.341 500.443 500.341C500.67 500.341 500.898 500.322 501.125 500.284C501.352 500.239 501.527 500.205 501.648 500.182L502.409 503.784C502.167 503.86 501.826 503.947 501.386 504.045C500.947 504.152 500.413 504.216 499.784 504.239C498.617 504.284 497.595 504.129 496.716 503.773C495.845 503.417 495.167 502.864 494.682 502.114C494.197 501.364 493.958 500.417 493.966 499.273V482.364ZM512.741 504V480.727H517.662V499.943H527.639V504H512.741ZM530.807 504V486.545H535.648V504H530.807ZM533.239 484.295C532.519 484.295 531.902 484.057 531.386 483.58C530.879 483.095 530.625 482.515 530.625 481.841C530.625 481.174 530.879 480.602 531.386 480.125C531.902 479.64 532.519 479.398 533.239 479.398C533.958 479.398 534.572 479.64 535.08 480.125C535.595 480.602 535.852 481.174 535.852 481.841C535.852 482.515 535.595 483.095 535.08 483.58C534.572 484.057 533.958 484.295 533.239 484.295ZM543.912 498.977L543.923 493.17H544.628L550.219 486.545H555.776L548.264 495.318H547.116L543.912 498.977ZM539.526 504V480.727H544.366V504H539.526ZM550.435 504L545.298 496.398L548.526 492.977L556.105 504H550.435ZM565.386 504.341C563.591 504.341 562.045 503.977 560.75 503.25C559.462 502.515 558.47 501.477 557.773 500.136C557.076 498.788 556.727 497.193 556.727 495.352C556.727 493.557 557.076 491.981 557.773 490.625C558.47 489.269 559.451 488.212 560.716 487.455C561.989 486.697 563.481 486.318 565.193 486.318C566.345 486.318 567.417 486.504 568.409 486.875C569.409 487.239 570.28 487.788 571.023 488.523C571.773 489.258 572.356 490.182 572.773 491.295C573.189 492.402 573.398 493.697 573.398 495.182V496.511H558.659V493.511H568.841C568.841 492.814 568.689 492.197 568.386 491.659C568.083 491.121 567.663 490.701 567.125 490.398C566.595 490.087 565.977 489.932 565.273 489.932C564.538 489.932 563.886 490.102 563.318 490.443C562.758 490.777 562.318 491.227 562 491.795C561.682 492.356 561.519 492.981 561.511 493.67V496.523C561.511 497.386 561.67 498.133 561.989 498.761C562.314 499.39 562.773 499.875 563.364 500.216C563.955 500.557 564.655 500.727 565.466 500.727C566.004 500.727 566.496 500.652 566.943 500.5C567.39 500.348 567.773 500.121 568.091 499.818C568.409 499.515 568.652 499.144 568.818 498.705L573.295 499C573.068 500.076 572.602 501.015 571.898 501.818C571.201 502.614 570.299 503.235 569.193 503.682C568.095 504.121 566.826 504.341 565.386 504.341ZM591.08 491.523L586.648 491.795C586.572 491.417 586.409 491.076 586.159 490.773C585.909 490.462 585.58 490.216 585.17 490.034C584.769 489.845 584.288 489.75 583.727 489.75C582.977 489.75 582.345 489.909 581.83 490.227C581.314 490.538 581.057 490.955 581.057 491.477C581.057 491.894 581.223 492.246 581.557 492.534C581.89 492.822 582.462 493.053 583.273 493.227L586.432 493.864C588.129 494.212 589.394 494.773 590.227 495.545C591.061 496.318 591.477 497.333 591.477 498.591C591.477 499.735 591.14 500.739 590.466 501.602C589.799 502.466 588.883 503.14 587.716 503.625C586.557 504.102 585.22 504.341 583.705 504.341C581.394 504.341 579.553 503.86 578.182 502.898C576.818 501.928 576.019 500.61 575.784 498.943L580.545 498.693C580.689 499.398 581.038 499.936 581.591 500.307C582.144 500.67 582.852 500.852 583.716 500.852C584.564 500.852 585.246 500.689 585.761 500.364C586.284 500.03 586.549 499.602 586.557 499.08C586.549 498.64 586.364 498.28 586 498C585.636 497.712 585.076 497.492 584.318 497.341L581.295 496.739C579.591 496.398 578.322 495.807 577.489 494.966C576.663 494.125 576.25 493.053 576.25 491.75C576.25 490.629 576.553 489.663 577.159 488.852C577.773 488.042 578.633 487.417 579.739 486.977C580.852 486.538 582.155 486.318 583.648 486.318C585.852 486.318 587.587 486.784 588.852 487.716C590.125 488.648 590.867 489.917 591.08 491.523Z" fill="black"/>
<path d="M1083.62 509.875H1078.64C1078.55 509.231 1078.37 508.659 1078.09 508.159C1077.8 507.652 1077.45 507.22 1077.01 506.864C1076.57 506.508 1076.06 506.235 1075.48 506.045C1074.91 505.856 1074.3 505.761 1073.63 505.761C1072.43 505.761 1071.38 506.061 1070.48 506.659C1069.59 507.25 1068.9 508.114 1068.4 509.25C1067.91 510.379 1067.66 511.75 1067.66 513.364C1067.66 515.023 1067.91 516.417 1068.4 517.545C1068.9 518.674 1069.6 519.527 1070.49 520.102C1071.39 520.678 1072.42 520.966 1073.6 520.966C1074.26 520.966 1074.87 520.879 1075.43 520.705C1075.99 520.53 1076.5 520.277 1076.94 519.943C1077.38 519.602 1077.74 519.189 1078.03 518.705C1078.32 518.22 1078.53 517.667 1078.64 517.045L1083.62 517.068C1083.49 518.136 1083.17 519.167 1082.65 520.159C1082.15 521.144 1081.46 522.027 1080.6 522.807C1079.74 523.58 1078.72 524.193 1077.53 524.648C1076.35 525.095 1075.01 525.318 1073.52 525.318C1071.44 525.318 1069.59 524.848 1067.95 523.909C1066.32 522.97 1065.03 521.61 1064.09 519.83C1063.15 518.049 1062.68 515.894 1062.68 513.364C1062.68 510.826 1063.15 508.667 1064.11 506.886C1065.06 505.106 1066.36 503.75 1067.99 502.818C1069.63 501.879 1071.47 501.409 1073.52 501.409C1074.87 501.409 1076.12 501.598 1077.27 501.977C1078.43 502.356 1079.45 502.909 1080.35 503.636C1081.24 504.356 1081.97 505.239 1082.53 506.284C1083.1 507.33 1083.46 508.527 1083.62 509.875ZM1087.06 525V507.545H1091.75V510.591H1091.93C1092.25 509.508 1092.78 508.689 1093.53 508.136C1094.28 507.576 1095.15 507.295 1096.12 507.295C1096.37 507.295 1096.63 507.311 1096.91 507.341C1097.19 507.371 1097.44 507.413 1097.65 507.466V511.761C1097.42 511.693 1097.11 511.633 1096.7 511.58C1096.3 511.527 1095.94 511.5 1095.6 511.5C1094.89 511.5 1094.25 511.655 1093.69 511.966C1093.14 512.269 1092.7 512.693 1092.38 513.239C1092.06 513.784 1091.9 514.413 1091.9 515.125V525H1087.06ZM1107.29 525.341C1105.5 525.341 1103.95 524.977 1102.66 524.25C1101.37 523.515 1100.38 522.477 1099.68 521.136C1098.98 519.788 1098.63 518.193 1098.63 516.352C1098.63 514.557 1098.98 512.981 1099.68 511.625C1100.38 510.269 1101.36 509.212 1102.62 508.455C1103.89 507.697 1105.39 507.318 1107.1 507.318C1108.25 507.318 1109.32 507.504 1110.32 507.875C1111.32 508.239 1112.19 508.788 1112.93 509.523C1113.68 510.258 1114.26 511.182 1114.68 512.295C1115.1 513.402 1115.3 514.697 1115.3 516.182V517.511H1100.57V514.511H1110.75C1110.75 513.814 1110.6 513.197 1110.29 512.659C1109.99 512.121 1109.57 511.701 1109.03 511.398C1108.5 511.087 1107.88 510.932 1107.18 510.932C1106.44 510.932 1105.79 511.102 1105.22 511.443C1104.66 511.777 1104.22 512.227 1103.91 512.795C1103.59 513.356 1103.43 513.981 1103.42 514.67V517.523C1103.42 518.386 1103.58 519.133 1103.89 519.761C1104.22 520.39 1104.68 520.875 1105.27 521.216C1105.86 521.557 1106.56 521.727 1107.37 521.727C1107.91 521.727 1108.4 521.652 1108.85 521.5C1109.3 521.348 1109.68 521.121 1110 520.818C1110.32 520.515 1110.56 520.144 1110.72 519.705L1115.2 520C1114.97 521.076 1114.51 522.015 1113.8 522.818C1113.11 523.614 1112.21 524.235 1111.1 524.682C1110 525.121 1108.73 525.341 1107.29 525.341ZM1123.44 525.33C1122.33 525.33 1121.33 525.136 1120.46 524.75C1119.59 524.356 1118.9 523.777 1118.39 523.011C1117.89 522.239 1117.64 521.277 1117.64 520.125C1117.64 519.155 1117.82 518.341 1118.18 517.682C1118.54 517.023 1119.02 516.492 1119.63 516.091C1120.25 515.689 1120.94 515.386 1121.72 515.182C1122.51 514.977 1123.34 514.833 1124.2 514.75C1125.22 514.644 1126.04 514.545 1126.66 514.455C1127.28 514.356 1127.73 514.212 1128.01 514.023C1128.29 513.833 1128.43 513.553 1128.43 513.182V513.114C1128.43 512.394 1128.2 511.837 1127.75 511.443C1127.3 511.049 1126.66 510.852 1125.84 510.852C1124.97 510.852 1124.27 511.045 1123.76 511.432C1123.24 511.811 1122.9 512.288 1122.74 512.864L1118.26 512.5C1118.49 511.439 1118.93 510.523 1119.6 509.75C1120.27 508.97 1121.13 508.371 1122.18 507.955C1123.24 507.53 1124.47 507.318 1125.86 507.318C1126.83 507.318 1127.76 507.432 1128.64 507.659C1129.54 507.886 1130.33 508.239 1131.02 508.716C1131.72 509.193 1132.27 509.807 1132.67 510.557C1133.07 511.299 1133.27 512.189 1133.27 513.227V525H1128.68V522.58H1128.54C1128.26 523.125 1127.89 523.606 1127.42 524.023C1126.95 524.432 1126.38 524.754 1125.72 524.989C1125.07 525.216 1124.3 525.33 1123.44 525.33ZM1124.83 521.989C1125.54 521.989 1126.17 521.848 1126.71 521.568C1127.26 521.28 1127.69 520.894 1128 520.409C1128.31 519.924 1128.46 519.375 1128.46 518.761V516.909C1128.31 517.008 1128.1 517.098 1127.84 517.182C1127.58 517.258 1127.29 517.33 1126.96 517.398C1126.64 517.458 1126.31 517.515 1125.99 517.568C1125.66 517.614 1125.36 517.655 1125.1 517.693C1124.53 517.777 1124.04 517.909 1123.61 518.091C1123.19 518.273 1122.86 518.519 1122.62 518.83C1122.39 519.133 1122.27 519.511 1122.27 519.966C1122.27 520.625 1122.51 521.129 1122.99 521.477C1123.47 521.818 1124.08 521.989 1124.83 521.989ZM1146.31 507.545V511.182H1135.8V507.545H1146.31ZM1138.18 503.364H1143.03V519.636C1143.03 520.083 1143.09 520.432 1143.23 520.682C1143.37 520.924 1143.56 521.095 1143.8 521.193C1144.05 521.292 1144.34 521.341 1144.66 521.341C1144.89 521.341 1145.12 521.322 1145.34 521.284C1145.57 521.239 1145.75 521.205 1145.87 521.182L1146.63 524.784C1146.39 524.86 1146.04 524.947 1145.61 525.045C1145.17 525.152 1144.63 525.216 1144 525.239C1142.84 525.284 1141.81 525.129 1140.93 524.773C1140.06 524.417 1139.39 523.864 1138.9 523.114C1138.42 522.364 1138.18 521.417 1138.18 520.273V503.364ZM1157.23 525.341C1155.43 525.341 1153.89 524.977 1152.59 524.25C1151.31 523.515 1150.31 522.477 1149.62 521.136C1148.92 519.788 1148.57 518.193 1148.57 516.352C1148.57 514.557 1148.92 512.981 1149.62 511.625C1150.31 510.269 1151.29 509.212 1152.56 508.455C1153.83 507.697 1155.32 507.318 1157.04 507.318C1158.19 507.318 1159.26 507.504 1160.25 507.875C1161.25 508.239 1162.12 508.788 1162.87 509.523C1163.62 510.258 1164.2 511.182 1164.62 512.295C1165.03 513.402 1165.24 514.697 1165.24 516.182V517.511H1150.5V514.511H1160.68C1160.68 513.814 1160.53 513.197 1160.23 512.659C1159.93 512.121 1159.51 511.701 1158.97 511.398C1158.44 511.087 1157.82 510.932 1157.12 510.932C1156.38 510.932 1155.73 511.102 1155.16 511.443C1154.6 511.777 1154.16 512.227 1153.84 512.795C1153.53 513.356 1153.36 513.981 1153.36 514.67V517.523C1153.36 518.386 1153.51 519.133 1153.83 519.761C1154.16 520.39 1154.62 520.875 1155.21 521.216C1155.8 521.557 1156.5 521.727 1157.31 521.727C1157.85 521.727 1158.34 521.652 1158.79 521.5C1159.23 521.348 1159.62 521.121 1159.93 520.818C1160.25 520.515 1160.5 520.144 1160.66 519.705L1165.14 520C1164.91 521.076 1164.45 522.015 1163.74 522.818C1163.04 523.614 1162.14 524.235 1161.04 524.682C1159.94 525.121 1158.67 525.341 1157.23 525.341ZM1180.82 501.727V525H1175.9V501.727H1180.82ZM1189.62 514.909V525H1184.78V507.545H1189.39V510.625H1189.59C1189.98 509.61 1190.63 508.807 1191.54 508.216C1192.45 507.617 1193.55 507.318 1194.84 507.318C1196.06 507.318 1197.11 507.583 1198.01 508.114C1198.92 508.644 1199.62 509.402 1200.12 510.386C1200.62 511.364 1200.87 512.53 1200.87 513.886V525H1196.03V514.75C1196.03 513.682 1195.76 512.848 1195.21 512.25C1194.65 511.644 1193.89 511.341 1192.92 511.341C1192.27 511.341 1191.7 511.481 1191.2 511.761C1190.7 512.042 1190.32 512.451 1190.04 512.989C1189.76 513.519 1189.62 514.159 1189.62 514.909ZM1213.97 507.545V511.182H1203.45V507.545H1213.97ZM1205.84 503.364H1210.68V519.636C1210.68 520.083 1210.75 520.432 1210.89 520.682C1211.02 520.924 1211.21 521.095 1211.45 521.193C1211.7 521.292 1211.99 521.341 1212.32 521.341C1212.55 521.341 1212.77 521.322 1213 521.284C1213.23 521.239 1213.4 521.205 1213.52 521.182L1214.28 524.784C1214.04 524.86 1213.7 524.947 1213.26 525.045C1212.82 525.152 1212.29 525.216 1211.66 525.239C1210.49 525.284 1209.47 525.129 1208.59 524.773C1207.72 524.417 1207.04 523.864 1206.56 523.114C1206.07 522.364 1205.83 521.417 1205.84 520.273V503.364ZM1224.89 525.341C1223.09 525.341 1221.55 524.977 1220.25 524.25C1218.96 523.515 1217.97 522.477 1217.27 521.136C1216.58 519.788 1216.23 518.193 1216.23 516.352C1216.23 514.557 1216.58 512.981 1217.27 511.625C1217.97 510.269 1218.95 509.212 1220.22 508.455C1221.49 507.697 1222.98 507.318 1224.69 507.318C1225.84 507.318 1226.92 507.504 1227.91 507.875C1228.91 508.239 1229.78 508.788 1230.52 509.523C1231.27 510.258 1231.86 511.182 1232.27 512.295C1232.69 513.402 1232.9 514.697 1232.9 516.182V517.511H1218.16V514.511H1228.34C1228.34 513.814 1228.19 513.197 1227.89 512.659C1227.58 512.121 1227.16 511.701 1226.62 511.398C1226.09 511.087 1225.48 510.932 1224.77 510.932C1224.04 510.932 1223.39 511.102 1222.82 511.443C1222.26 511.777 1221.82 512.227 1221.5 512.795C1221.18 513.356 1221.02 513.981 1221.01 514.67V517.523C1221.01 518.386 1221.17 519.133 1221.49 519.761C1221.81 520.39 1222.27 520.875 1222.86 521.216C1223.45 521.557 1224.16 521.727 1224.97 521.727C1225.5 521.727 1226 521.652 1226.44 521.5C1226.89 521.348 1227.27 521.121 1227.59 520.818C1227.91 520.515 1228.15 520.144 1228.32 519.705L1232.8 520C1232.57 521.076 1232.1 522.015 1231.4 522.818C1230.7 523.614 1229.8 524.235 1228.69 524.682C1227.59 525.121 1226.33 525.341 1224.89 525.341ZM1236.06 525V507.545H1240.75V510.591H1240.93C1241.25 509.508 1241.78 508.689 1242.53 508.136C1243.28 507.576 1244.15 507.295 1245.12 507.295C1245.37 507.295 1245.63 507.311 1245.91 507.341C1246.19 507.371 1246.44 507.413 1246.65 507.466V511.761C1246.42 511.693 1246.11 511.633 1245.7 511.58C1245.3 511.527 1244.94 511.5 1244.6 511.5C1243.89 511.5 1243.25 511.655 1242.69 511.966C1242.14 512.269 1241.7 512.693 1241.38 513.239C1241.06 513.784 1240.9 514.413 1240.9 515.125V525H1236.06ZM1256.29 525.341C1254.5 525.341 1252.95 524.977 1251.66 524.25C1250.37 523.515 1249.38 522.477 1248.68 521.136C1247.98 519.788 1247.63 518.193 1247.63 516.352C1247.63 514.557 1247.98 512.981 1248.68 511.625C1249.38 510.269 1250.36 509.212 1251.62 508.455C1252.89 507.697 1254.39 507.318 1256.1 507.318C1257.25 507.318 1258.32 507.504 1259.32 507.875C1260.32 508.239 1261.19 508.788 1261.93 509.523C1262.68 510.258 1263.26 511.182 1263.68 512.295C1264.1 513.402 1264.3 514.697 1264.3 516.182V517.511H1249.57V514.511H1259.75C1259.75 513.814 1259.6 513.197 1259.29 512.659C1258.99 512.121 1258.57 511.701 1258.03 511.398C1257.5 511.087 1256.88 510.932 1256.18 510.932C1255.44 510.932 1254.79 511.102 1254.22 511.443C1253.66 511.777 1253.22 512.227 1252.91 512.795C1252.59 513.356 1252.43 513.981 1252.42 514.67V517.523C1252.42 518.386 1252.58 519.133 1252.89 519.761C1253.22 520.39 1253.68 520.875 1254.27 521.216C1254.86 521.557 1255.56 521.727 1256.37 521.727C1256.91 521.727 1257.4 521.652 1257.85 521.5C1258.3 521.348 1258.68 521.121 1259 520.818C1259.32 520.515 1259.56 520.144 1259.72 519.705L1264.2 520C1263.97 521.076 1263.51 522.015 1262.8 522.818C1262.11 523.614 1261.21 524.235 1260.1 524.682C1259 525.121 1257.73 525.341 1256.29 525.341ZM1281.99 512.523L1277.55 512.795C1277.48 512.417 1277.32 512.076 1277.07 511.773C1276.82 511.462 1276.49 511.216 1276.08 511.034C1275.68 510.845 1275.19 510.75 1274.63 510.75C1273.88 510.75 1273.25 510.909 1272.74 511.227C1272.22 511.538 1271.96 511.955 1271.96 512.477C1271.96 512.894 1272.13 513.246 1272.46 513.534C1272.8 513.822 1273.37 514.053 1274.18 514.227L1277.34 514.864C1279.04 515.212 1280.3 515.773 1281.13 516.545C1281.97 517.318 1282.38 518.333 1282.38 519.591C1282.38 520.735 1282.05 521.739 1281.37 522.602C1280.71 523.466 1279.79 524.14 1278.62 524.625C1277.46 525.102 1276.13 525.341 1274.61 525.341C1272.3 525.341 1270.46 524.86 1269.09 523.898C1267.72 522.928 1266.93 521.61 1266.69 519.943L1271.45 519.693C1271.6 520.398 1271.94 520.936 1272.5 521.307C1273.05 521.67 1273.76 521.852 1274.62 521.852C1275.47 521.852 1276.15 521.689 1276.67 521.364C1277.19 521.03 1277.46 520.602 1277.46 520.08C1277.46 519.64 1277.27 519.28 1276.91 519C1276.54 518.712 1275.98 518.492 1275.22 518.341L1272.2 517.739C1270.5 517.398 1269.23 516.807 1268.39 515.966C1267.57 515.125 1267.16 514.053 1267.16 512.75C1267.16 511.629 1267.46 510.663 1268.07 509.852C1268.68 509.042 1269.54 508.417 1270.64 507.977C1271.76 507.538 1273.06 507.318 1274.55 507.318C1276.76 507.318 1278.49 507.784 1279.76 508.716C1281.03 509.648 1281.77 510.917 1281.99 512.523ZM1294.72 507.545V511.182H1284.2V507.545H1294.72ZM1286.59 503.364H1291.43V519.636C1291.43 520.083 1291.5 520.432 1291.64 520.682C1291.77 520.924 1291.96 521.095 1292.2 521.193C1292.45 521.292 1292.74 521.341 1293.07 521.341C1293.3 521.341 1293.52 521.322 1293.75 521.284C1293.98 521.239 1294.15 521.205 1294.27 521.182L1295.03 524.784C1294.79 524.86 1294.45 524.947 1294.01 525.045C1293.57 525.152 1293.04 525.216 1292.41 525.239C1291.24 525.284 1290.22 525.129 1289.34 524.773C1288.47 524.417 1287.79 523.864 1287.31 523.114C1286.82 522.364 1286.58 521.417 1286.59 520.273V503.364ZM1138.77 548.25C1138.61 547.697 1138.38 547.208 1138.1 546.784C1137.81 546.352 1137.46 545.989 1137.04 545.693C1136.63 545.39 1136.16 545.159 1135.63 545C1135.11 544.841 1134.53 544.761 1133.89 544.761C1132.7 544.761 1131.66 545.057 1130.76 545.648C1129.86 546.239 1129.16 547.098 1128.66 548.227C1128.16 549.348 1127.91 550.72 1127.91 552.341C1127.91 553.962 1128.16 555.341 1128.65 556.477C1129.15 557.614 1129.84 558.481 1130.74 559.08C1131.65 559.67 1132.71 559.966 1133.94 559.966C1135.05 559.966 1136 559.769 1136.79 559.375C1137.59 558.973 1138.19 558.409 1138.61 557.682C1139.03 556.955 1139.24 556.095 1139.24 555.102L1140.24 555.25H1134.24V551.545H1143.98V554.477C1143.98 556.523 1143.55 558.28 1142.69 559.75C1141.82 561.212 1140.63 562.341 1139.12 563.136C1137.6 563.924 1135.87 564.318 1133.91 564.318C1131.73 564.318 1129.82 563.837 1128.16 562.875C1126.51 561.905 1125.23 560.53 1124.3 558.75C1123.38 556.962 1122.93 554.841 1122.93 552.386C1122.93 550.5 1123.2 548.818 1123.74 547.341C1124.3 545.856 1125.07 544.598 1126.06 543.568C1127.05 542.538 1128.21 541.754 1129.53 541.216C1130.85 540.678 1132.27 540.409 1133.81 540.409C1135.13 540.409 1136.36 540.602 1137.49 540.989C1138.63 541.367 1139.64 541.905 1140.52 542.602C1141.4 543.299 1142.13 544.129 1142.69 545.091C1143.25 546.045 1143.61 547.098 1143.77 548.25H1138.77ZM1147.59 564V546.545H1152.28V549.591H1152.46C1152.78 548.508 1153.32 547.689 1154.07 547.136C1154.82 546.576 1155.68 546.295 1156.66 546.295C1156.9 546.295 1157.16 546.311 1157.44 546.341C1157.72 546.371 1157.97 546.413 1158.18 546.466V550.761C1157.95 550.693 1157.64 550.633 1157.24 550.58C1156.83 550.527 1156.47 550.5 1156.13 550.5C1155.42 550.5 1154.79 550.655 1154.22 550.966C1153.67 551.269 1153.23 551.693 1152.91 552.239C1152.59 552.784 1152.43 553.413 1152.43 554.125V564H1147.59ZM1167.76 564.341C1165.99 564.341 1164.46 563.966 1163.18 563.216C1161.9 562.458 1160.91 561.405 1160.21 560.057C1159.51 558.701 1159.16 557.129 1159.16 555.341C1159.16 553.538 1159.51 551.962 1160.21 550.614C1160.91 549.258 1161.9 548.205 1163.18 547.455C1164.46 546.697 1165.99 546.318 1167.76 546.318C1169.52 546.318 1171.04 546.697 1172.32 547.455C1173.61 548.205 1174.6 549.258 1175.3 550.614C1176 551.962 1176.35 553.538 1176.35 555.341C1176.35 557.129 1176 558.701 1175.3 560.057C1174.6 561.405 1173.61 562.458 1172.32 563.216C1171.04 563.966 1169.52 564.341 1167.76 564.341ZM1167.78 560.591C1168.58 560.591 1169.25 560.364 1169.79 559.909C1170.33 559.447 1170.73 558.818 1171.01 558.023C1171.29 557.227 1171.43 556.322 1171.43 555.307C1171.43 554.292 1171.29 553.386 1171.01 552.591C1170.73 551.795 1170.33 551.167 1169.79 550.705C1169.25 550.242 1168.58 550.011 1167.78 550.011C1166.97 550.011 1166.29 550.242 1165.73 550.705C1165.19 551.167 1164.77 551.795 1164.49 552.591C1164.22 553.386 1164.09 554.292 1164.09 555.307C1164.09 556.322 1164.22 557.227 1164.49 558.023C1164.77 558.818 1165.19 559.447 1165.73 559.909C1166.29 560.364 1166.97 560.591 1167.78 560.591ZM1190.69 556.568V546.545H1195.53V564H1190.88V560.83H1190.7C1190.3 561.852 1189.65 562.674 1188.73 563.295C1187.82 563.917 1186.71 564.227 1185.4 564.227C1184.24 564.227 1183.21 563.962 1182.32 563.432C1181.44 562.902 1180.74 562.148 1180.24 561.17C1179.75 560.193 1179.5 559.023 1179.49 557.659V546.545H1184.34V556.795C1184.34 557.826 1184.62 558.64 1185.16 559.239C1185.71 559.837 1186.44 560.136 1187.36 560.136C1187.94 560.136 1188.49 560.004 1188.99 559.739C1189.5 559.466 1189.91 559.064 1190.22 558.534C1190.54 558.004 1190.7 557.348 1190.69 556.568ZM1199.4 570.545V546.545H1204.17V549.477H1204.39C1204.6 549.008 1204.91 548.53 1205.31 548.045C1205.72 547.553 1206.25 547.144 1206.9 546.818C1207.56 546.485 1208.38 546.318 1209.36 546.318C1210.63 546.318 1211.8 546.652 1212.88 547.318C1213.95 547.977 1214.81 548.973 1215.46 550.307C1216.1 551.633 1216.42 553.295 1216.42 555.295C1216.42 557.242 1216.11 558.886 1215.48 560.227C1214.86 561.561 1214.01 562.572 1212.93 563.261C1211.87 563.943 1210.67 564.284 1209.34 564.284C1208.4 564.284 1207.61 564.129 1206.95 563.818C1206.29 563.508 1205.76 563.117 1205.34 562.648C1204.93 562.17 1204.61 561.689 1204.39 561.205H1204.24V570.545H1199.4ZM1204.14 555.273C1204.14 556.311 1204.28 557.216 1204.57 557.989C1204.86 558.761 1205.28 559.364 1205.82 559.795C1206.37 560.22 1207.03 560.432 1207.81 560.432C1208.6 560.432 1209.26 560.216 1209.81 559.784C1210.36 559.345 1210.77 558.739 1211.05 557.966C1211.34 557.186 1211.48 556.288 1211.48 555.273C1211.48 554.265 1211.34 553.379 1211.06 552.614C1210.78 551.848 1210.37 551.25 1209.82 550.818C1209.28 550.386 1208.61 550.17 1207.81 550.17C1207.02 550.17 1206.36 550.379 1205.81 550.795C1205.27 551.212 1204.86 551.803 1204.57 552.568C1204.28 553.333 1204.14 554.235 1204.14 555.273ZM1234.17 551.523L1229.74 551.795C1229.67 551.417 1229.5 551.076 1229.25 550.773C1229 550.462 1228.67 550.216 1228.26 550.034C1227.86 549.845 1227.38 549.75 1226.82 549.75C1226.07 549.75 1225.44 549.909 1224.92 550.227C1224.41 550.538 1224.15 550.955 1224.15 551.477C1224.15 551.894 1224.32 552.246 1224.65 552.534C1224.98 552.822 1225.56 553.053 1226.37 553.227L1229.53 553.864C1231.22 554.212 1232.49 554.773 1233.32 555.545C1234.15 556.318 1234.57 557.333 1234.57 558.591C1234.57 559.735 1234.23 560.739 1233.56 561.602C1232.89 562.466 1231.98 563.14 1230.81 563.625C1229.65 564.102 1228.31 564.341 1226.8 564.341C1224.49 564.341 1222.65 563.86 1221.28 562.898C1219.91 561.928 1219.11 560.61 1218.88 558.943L1223.64 558.693C1223.78 559.398 1224.13 559.936 1224.68 560.307C1225.24 560.67 1225.95 560.852 1226.81 560.852C1227.66 560.852 1228.34 560.689 1228.86 560.364C1229.38 560.03 1229.64 559.602 1229.65 559.08C1229.64 558.64 1229.46 558.28 1229.09 558C1228.73 557.712 1228.17 557.492 1227.41 557.341L1224.39 556.739C1222.68 556.398 1221.42 555.807 1220.58 554.966C1219.76 554.125 1219.34 553.053 1219.34 551.75C1219.34 550.629 1219.65 549.663 1220.25 548.852C1220.87 548.042 1221.73 547.417 1222.83 546.977C1223.95 546.538 1225.25 546.318 1226.74 546.318C1228.95 546.318 1230.68 546.784 1231.95 547.716C1233.22 548.648 1233.96 549.917 1234.17 551.523Z" fill="black"/>
<path d="M981.241 61V37.7273H996.923V41.7841H986.162V47.3295H996.116V51.3864H986.162V56.9432H996.969V61H981.241ZM1005.72 61.3295C1004.61 61.3295 1003.62 61.1364 1002.74 60.75C1001.87 60.3561 1001.18 59.7765 1000.68 59.0114C1000.18 58.2386 999.926 57.2765 999.926 56.125C999.926 55.1553 1000.1 54.3409 1000.46 53.6818C1000.82 53.0227 1001.3 52.4924 1001.91 52.0909C1002.53 51.6894 1003.23 51.3864 1004.01 51.1818C1004.79 50.9773 1005.62 50.8333 1006.48 50.75C1007.5 50.6439 1008.32 50.5455 1008.94 50.4545C1009.56 50.3561 1010.01 50.2121 1010.29 50.0227C1010.57 49.8333 1010.71 49.553 1010.71 49.1818V49.1136C1010.71 48.3939 1010.48 47.8371 1010.03 47.4432C1009.58 47.0492 1008.95 46.8523 1008.12 46.8523C1007.25 46.8523 1006.55 47.0455 1006.04 47.4318C1005.52 47.8106 1005.18 48.2879 1005.02 48.8636L1000.54 48.5C1000.77 47.4394 1001.21 46.5227 1001.88 45.75C1002.55 44.9697 1003.41 44.3712 1004.46 43.9545C1005.52 43.5303 1006.75 43.3182 1008.14 43.3182C1009.11 43.3182 1010.04 43.4318 1010.93 43.6591C1011.82 43.8864 1012.61 44.2386 1013.3 44.7159C1014 45.1932 1014.55 45.8068 1014.95 46.5568C1015.35 47.2992 1015.55 48.1894 1015.55 49.2273V61H1010.96V58.5795H1010.82C1010.54 59.125 1010.17 59.6061 1009.7 60.0227C1009.23 60.4318 1008.66 60.7538 1008.01 60.9886C1007.35 61.2159 1006.59 61.3295 1005.72 61.3295ZM1007.11 57.9886C1007.82 57.9886 1008.45 57.8485 1008.99 57.5682C1009.54 57.2803 1009.97 56.8939 1010.28 56.4091C1010.59 55.9242 1010.74 55.375 1010.74 54.7614V52.9091C1010.59 53.0076 1010.38 53.0985 1010.12 53.1818C1009.86 53.2576 1009.57 53.3295 1009.24 53.3977C1008.92 53.4583 1008.59 53.5152 1008.27 53.5682C1007.94 53.6136 1007.65 53.6553 1007.38 53.6932C1006.81 53.7765 1006.32 53.9091 1005.89 54.0909C1005.47 54.2727 1005.14 54.5189 1004.9 54.8295C1004.67 55.1326 1004.55 55.5114 1004.55 55.9659C1004.55 56.625 1004.79 57.1288 1005.27 57.4773C1005.75 57.8182 1006.37 57.9886 1007.11 57.9886ZM1019.31 61V43.5455H1024V46.5909H1024.18C1024.5 45.5076 1025.03 44.6894 1025.78 44.1364C1026.53 43.5758 1027.4 43.2955 1028.38 43.2955C1028.62 43.2955 1028.88 43.3106 1029.16 43.3409C1029.44 43.3712 1029.69 43.4129 1029.9 43.4659V47.7614C1029.67 47.6932 1029.36 47.6326 1028.95 47.5795C1028.55 47.5265 1028.19 47.5 1027.85 47.5C1027.14 47.5 1026.5 47.6553 1025.94 47.9659C1025.39 48.2689 1024.95 48.6932 1024.62 49.2386C1024.31 49.7841 1024.15 50.4129 1024.15 51.125V61H1019.31ZM1037.24 50.9091V61H1032.4V43.5455H1037.01V46.625H1037.22C1037.61 45.6098 1038.25 44.8068 1039.16 44.2159C1040.07 43.6174 1041.17 43.3182 1042.47 43.3182C1043.68 43.3182 1044.74 43.5833 1045.64 44.1136C1046.54 44.6439 1047.24 45.4015 1047.74 46.3864C1048.24 47.3636 1048.49 48.5303 1048.49 49.8864V61H1043.65V50.75C1043.66 49.6818 1043.39 48.8485 1042.83 48.25C1042.28 47.6439 1041.52 47.3409 1040.55 47.3409C1039.9 47.3409 1039.32 47.4811 1038.82 47.7614C1038.33 48.0417 1037.94 48.4508 1037.66 48.9886C1037.39 49.5189 1037.25 50.1591 1037.24 50.9091ZM1059.8 37.7273H1065.87L1072.28 53.3636H1072.55L1078.96 37.7273H1085.03V61H1080.26V45.8523H1080.07L1074.04 60.8864H1070.79L1064.77 45.7955H1064.58V61H1059.8V37.7273ZM1096.95 61.3409C1095.15 61.3409 1093.61 60.9773 1092.31 60.25C1091.02 59.5152 1090.03 58.4773 1089.34 57.1364C1088.64 55.7879 1088.29 54.1932 1088.29 52.3523C1088.29 50.5568 1088.64 48.9811 1089.34 47.625C1090.03 46.2689 1091.01 45.2121 1092.28 44.4545C1093.55 43.697 1095.04 43.3182 1096.76 43.3182C1097.91 43.3182 1098.98 43.5038 1099.97 43.875C1100.97 44.2386 1101.84 44.7879 1102.59 45.5227C1103.34 46.2576 1103.92 47.1818 1104.34 48.2955C1104.75 49.4015 1104.96 50.697 1104.96 52.1818V53.5114H1090.22V50.5114H1100.4C1100.4 49.8144 1100.25 49.197 1099.95 48.6591C1099.65 48.1212 1099.23 47.7008 1098.69 47.3977C1098.16 47.0871 1097.54 46.9318 1096.84 46.9318C1096.1 46.9318 1095.45 47.1023 1094.88 47.4432C1094.32 47.7765 1093.88 48.2273 1093.56 48.7955C1093.24 49.3561 1093.08 49.9811 1093.07 50.6705V53.5227C1093.07 54.3864 1093.23 55.1326 1093.55 55.7614C1093.88 56.3902 1094.34 56.875 1094.93 57.2159C1095.52 57.5568 1096.22 57.7273 1097.03 57.7273C1097.57 57.7273 1098.06 57.6515 1098.51 57.5C1098.95 57.3485 1099.34 57.1212 1099.65 56.8182C1099.97 56.5152 1100.21 56.1439 1100.38 55.7045L1104.86 56C1104.63 57.0758 1104.16 58.0152 1103.46 58.8182C1102.76 59.6136 1101.86 60.2348 1100.76 60.6818C1099.66 61.1212 1098.39 61.3409 1096.95 61.3409ZM1114.55 61.2841C1113.23 61.2841 1112.02 60.9432 1110.95 60.2614C1109.88 59.572 1109.03 58.5606 1108.4 57.2273C1107.78 55.8864 1107.47 54.2424 1107.47 52.2955C1107.47 50.2955 1107.79 48.6326 1108.44 47.3068C1109.08 45.9735 1109.94 44.9773 1111.01 44.3182C1112.08 43.6515 1113.26 43.3182 1114.54 43.3182C1115.52 43.3182 1116.33 43.4848 1116.98 43.8182C1117.64 44.1439 1118.17 44.553 1118.57 45.0455C1118.98 45.5303 1119.29 46.0076 1119.51 46.4773H1119.65V37.7273H1124.48V61H1119.71V58.2045H1119.51C1119.28 58.6894 1118.96 59.1705 1118.54 59.6477C1118.13 60.1174 1117.6 60.5076 1116.94 60.8182C1116.29 61.1288 1115.49 61.2841 1114.55 61.2841ZM1116.09 57.4318C1116.87 57.4318 1117.52 57.2197 1118.06 56.7955C1118.61 56.3636 1119.02 55.7614 1119.31 54.9886C1119.61 54.2159 1119.76 53.3106 1119.76 52.2727C1119.76 51.2348 1119.61 50.3333 1119.32 49.5682C1119.04 48.803 1118.62 48.2121 1118.07 47.7955C1117.53 47.3788 1116.87 47.1705 1116.09 47.1705C1115.29 47.1705 1114.62 47.3864 1114.07 47.8182C1113.53 48.25 1113.12 48.8485 1112.84 49.6136C1112.55 50.3788 1112.41 51.2652 1112.41 52.2727C1112.41 53.2879 1112.55 54.1856 1112.84 54.9659C1113.12 55.7386 1113.54 56.3447 1114.07 56.7841C1114.62 57.2159 1115.29 57.4318 1116.09 57.4318ZM1133.44 61.3295C1132.33 61.3295 1131.33 61.1364 1130.46 60.75C1129.59 60.3561 1128.9 59.7765 1128.39 59.0114C1127.89 58.2386 1127.64 57.2765 1127.64 56.125C1127.64 55.1553 1127.82 54.3409 1128.18 53.6818C1128.54 53.0227 1129.02 52.4924 1129.63 52.0909C1130.25 51.6894 1130.94 51.3864 1131.72 51.1818C1132.51 50.9773 1133.34 50.8333 1134.2 50.75C1135.22 50.6439 1136.04 50.5455 1136.66 50.4545C1137.28 50.3561 1137.73 50.2121 1138.01 50.0227C1138.29 49.8333 1138.43 49.553 1138.43 49.1818V49.1136C1138.43 48.3939 1138.2 47.8371 1137.75 47.4432C1137.3 47.0492 1136.66 46.8523 1135.84 46.8523C1134.97 46.8523 1134.27 47.0455 1133.76 47.4318C1133.24 47.8106 1132.9 48.2879 1132.74 48.8636L1128.26 48.5C1128.49 47.4394 1128.93 46.5227 1129.6 45.75C1130.27 44.9697 1131.13 44.3712 1132.18 43.9545C1133.24 43.5303 1134.47 43.3182 1135.86 43.3182C1136.83 43.3182 1137.76 43.4318 1138.64 43.6591C1139.54 43.8864 1140.33 44.2386 1141.02 44.7159C1141.72 45.1932 1142.27 45.8068 1142.67 46.5568C1143.07 47.2992 1143.27 48.1894 1143.27 49.2273V61H1138.68V58.5795H1138.54C1138.26 59.125 1137.89 59.6061 1137.42 60.0227C1136.95 60.4318 1136.38 60.7538 1135.72 60.9886C1135.07 61.2159 1134.3 61.3295 1133.44 61.3295ZM1134.83 57.9886C1135.54 57.9886 1136.17 57.8485 1136.71 57.5682C1137.26 57.2803 1137.69 56.8939 1138 56.4091C1138.31 55.9242 1138.46 55.375 1138.46 54.7614V52.9091C1138.31 53.0076 1138.1 53.0985 1137.84 53.1818C1137.58 53.2576 1137.29 53.3295 1136.96 53.3977C1136.64 53.4583 1136.31 53.5152 1135.99 53.5682C1135.66 53.6136 1135.36 53.6553 1135.1 53.6932C1134.53 53.7765 1134.04 53.9091 1133.61 54.0909C1133.19 54.2727 1132.86 54.5189 1132.62 54.8295C1132.39 55.1326 1132.27 55.5114 1132.27 55.9659C1132.27 56.625 1132.51 57.1288 1132.99 57.4773C1133.47 57.8182 1134.08 57.9886 1134.83 57.9886ZM1151.87 37.7273V61H1147.03V37.7273H1151.87ZM1170.27 48.5227L1165.84 48.7955C1165.76 48.4167 1165.6 48.0758 1165.35 47.7727C1165.1 47.4621 1164.77 47.2159 1164.36 47.0341C1163.96 46.8447 1163.48 46.75 1162.91 46.75C1162.16 46.75 1161.53 46.9091 1161.02 47.2273C1160.5 47.5379 1160.24 47.9545 1160.24 48.4773C1160.24 48.8939 1160.41 49.2462 1160.74 49.5341C1161.08 49.822 1161.65 50.053 1162.46 50.2273L1165.62 50.8636C1167.32 51.2121 1168.58 51.7727 1169.41 52.5455C1170.25 53.3182 1170.66 54.3333 1170.66 55.5909C1170.66 56.7348 1170.33 57.7386 1169.65 58.6023C1168.99 59.4659 1168.07 60.1402 1166.9 60.625C1165.74 61.1023 1164.41 61.3409 1162.89 61.3409C1160.58 61.3409 1158.74 60.8598 1157.37 59.8977C1156.01 58.928 1155.21 57.6098 1154.97 55.9432L1159.73 55.6932C1159.88 56.3977 1160.23 56.9356 1160.78 57.3068C1161.33 57.6705 1162.04 57.8523 1162.9 57.8523C1163.75 57.8523 1164.43 57.6894 1164.95 57.3636C1165.47 57.0303 1165.74 56.6023 1165.74 56.0795C1165.74 55.6402 1165.55 55.2803 1165.19 55C1164.82 54.7121 1164.26 54.4924 1163.51 54.3409L1160.48 53.7386C1158.78 53.3977 1157.51 52.8068 1156.68 51.9659C1155.85 51.125 1155.44 50.053 1155.44 48.75C1155.44 47.6288 1155.74 46.6629 1156.35 45.8523C1156.96 45.0417 1157.82 44.4167 1158.93 43.9773C1160.04 43.5379 1161.34 43.3182 1162.84 43.3182C1165.04 43.3182 1166.77 43.7841 1168.04 44.7159C1169.31 45.6477 1170.05 46.9167 1170.27 48.5227Z" fill="black"/>
</svg>
